<svg xmlns="http://www.w3.org/2000/svg" width="100" height="100" viewBox="0 0 100 100"><path fill="#231f20" d="M99.5 50a50 50 0 1 1-50-50 50 50 0 0 1 50 50zM77.2 38.7c-.3-1.6-.4-3.1-.8-4.6a14.6 14.6 0 0 0-13.7-11.5l-1.6-.3H37.9a40.2 40.2 0 0 0-5 1 14.5 14.5 0 0 0-10.8 13.3c0 .6-.2 1.2-.2 1.8v23.2a51.2 51.2 0 0 0 1 5.4 14.7 14.7 0 0 0 13.4 10.4l1.9.3h22.7l4.7-.9a14.5 14.5 0 0 0 11.3-13.6 14.8 14.8 0 0 1 .3-1.9z"/><path fill="#231f20" d="M49.5 40.8a9.2 9.2 0 0 0-9.1 9.2 8.9 8.9 0 0 0 9.1 9.1 9.2 9.2 0 1 0 0-18.3z"/><path fill="#231f20" d="M61.6 27.6c-8.1-.1-16.1-.1-24.2 0-5.6.1-9.3 3.3-10 8.9S27 57.9 27.1 62c.2 6.2 4.2 10.3 10.4 10.4h24c6.2-.1 10.3-4.1 10.4-10.3.1-8.1.1-16.1 0-24.2-.1-6.1-4.2-10.2-10.3-10.3zM49.5 64.2A14.1 14.1 0 0 1 35.3 50a14.2 14.2 0 1 1 28.4 0 14.1 14.1 0 0 1-14.2 14.2zm14.8-25.6a3.5 3.5 0 0 1-3.4-3.5 3.4 3.4 0 0 1 3.4-3.2 3.3 3.3 0 0 1 3.3 3.4 3.3 3.3 0 0 1-3.3 3.3z"/></svg>