<svg xmlns="http://www.w3.org/2000/svg"><symbol id="twitter" viewBox="0 0 100 100"><path fill="#009889" d="M100 50a50 50 0 0 1-50 50h-1.1A50 50 0 1 1 100 47.5zM83.4 33.8l-7.6 2.5.5-.3.3-.2.6-.5c2.3-2.2 4-6.9 4.1-7.2l-6.7 3.6c-5.7-7-10.7-6.5-16.5-3.9s-5.8 12.8-5.8 12.8c-21.9-.5-27.4-10.4-27.4-10.4-6.3 10.2 4 16.6 4 16.6-1.6 0-5.9-1.8-5.9-1.8.3 5.6 4.7 9.5 8.5 11.8l1.7.9.5.3.6.2 2 .9h.3l.8.3h-.3l-.2.2h-.7l-1.4.3a24.1 24.1 0 0 1-7.5-1 10.8 10.8 0 0 0 5.5 7.1l.6.3.6.3.6.2 2.2.7 1.3.3h1.2l-.7.5-.7.5-1.5.9a28.8 28.8 0 0 1-15.3 3.1l1.1.5 2.9 1.3 1.1.4 1.6.6 1.2.4 2.4.8.8.2 2.4.6 1 .2 1.2.2 1.2.2h2.3c10.4.7 18.8-3.2 26.5-10.2 11.1-9.8 10.4-27.3 10.4-27.3l.8-.5.5-.4a42.8 42.8 0 0 0 4.9-6z"/></symbol><symbol id="facebook" viewBox="0 0 100 100"><path fill="#009889" d="M99.5 50a50 50 0 0 1-50 50h-1.1a50 50 0 1 1 51.1-52.5zM58.8 29.2h7V19.1h-10c-10 0-12.8 8.1-12.8 13.1v9.4h-9.7V53H43v27.9h11.3V53h9.5l1.5-11.4h-11v-8.1a4.3 4.3 0 0 1 4.5-4.3z"/></symbol><symbol id="instagram" viewBox="0 0 100 100"><path fill="#009889" d="M99.5 50a50 50 0 1 1-50-50 50 50 0 0 1 50 50zM77.2 38.7c-.3-1.6-.4-3.1-.8-4.6a14.6 14.6 0 0 0-13.7-11.5l-1.6-.3H37.9a40.2 40.2 0 0 0-5 1 14.5 14.5 0 0 0-10.8 13.3c0 .6-.2 1.2-.2 1.8v23.2a51.2 51.2 0 0 0 1 5.4 14.7 14.7 0 0 0 13.4 10.4l1.9.3h22.7l4.7-.9a14.5 14.5 0 0 0 11.3-13.6 14.8 14.8 0 0 1 .3-1.9z"/><path fill="#009889" d="M49.5 40.8a9.2 9.2 0 0 0-9.1 9.2 8.9 8.9 0 0 0 9.1 9.1 9.2 9.2 0 1 0 0-18.3z"/><path fill="#009889" d="M61.6 27.6c-8.1-.1-16.1-.1-24.2 0-5.6.1-9.3 3.3-10 8.9S27 57.9 27.1 62c.2 6.2 4.2 10.3 10.4 10.4h24c6.2-.1 10.3-4.1 10.4-10.3.1-8.1.1-16.1 0-24.2-.1-6.1-4.2-10.2-10.3-10.3zM49.5 64.2A14.1 14.1 0 0 1 35.3 50a14.2 14.2 0 1 1 28.4 0 14.1 14.1 0 0 1-14.2 14.2zm14.8-25.6a3.5 3.5 0 0 1-3.4-3.5 3.4 3.4 0 0 1 3.4-3.2 3.3 3.3 0 0 1 3.3 3.4 3.3 3.3 0 0 1-3.3 3.3z"/></symbol></svg>
