<svg xmlns="http://www.w3.org/2000/svg" width="100" height="100" viewBox="0 0 100 100"><path fill="#231f20" d="M100 50a50 50 0 0 1-50 50h-1.1A50 50 0 1 1 100 47.5zM83.4 33.8l-7.6 2.5.5-.3.3-.2.6-.5c2.3-2.2 4-6.9 4.1-7.2l-6.7 3.6c-5.7-7-10.7-6.5-16.5-3.9s-5.8 12.8-5.8 12.8c-21.9-.5-27.4-10.4-27.4-10.4-6.3 10.2 4 16.6 4 16.6-1.6 0-5.9-1.8-5.9-1.8.3 5.6 4.7 9.5 8.5 11.8l1.7.9.5.3.6.2 2 .9h.3l.8.3h-.3l-.2.2h-.7l-1.4.3a24.1 24.1 0 0 1-7.5-1 10.8 10.8 0 0 0 5.5 7.1l.6.3.6.3.6.2 2.2.7 1.3.3h1.2l-.7.5-.7.5-1.5.9a28.8 28.8 0 0 1-15.3 3.1l1.1.5 2.9 1.3 1.1.4 1.6.6 1.2.4 2.4.8.8.2 2.4.6 1 .2 1.2.2 1.2.2h2.3c10.4.7 18.8-3.2 26.5-10.2 11.1-9.8 10.4-27.3 10.4-27.3l.8-.5.5-.4a42.8 42.8 0 0 0 4.9-6z"/></svg>