<svg xmlns="http://www.w3.org/2000/svg" width="100" height="100" viewBox="0 0 100 100"><title>narc-logo</title><g id="Layer_1" data-name="Layer 1"><circle cx="50" cy="49.7" r="48.7" fill="#fff"/><path d="M65.1,13A39.8,39.8,0,0,1,83.3,27.7a36,36,0,0,1,2.9,5,38.9,38.9,0,0,1,3.8,17,39.4,39.4,0,1,1-78.8,0c0-1.3,0-2.5.1-3.8s.3-2.4.6-3.6" fill="none" stroke="#231f20" stroke-miterlimit="10" stroke-width="6"/><path d="M22.3,31.5a36.6,36.6,0,0,0-7.3.4l4.2,3.2-2,2.8-9-6.1,2.3-3.2a51.6,51.6,0,0,1,7.7-.8l-3.9-3.6a38.3,38.3,0,0,1,2.8-2.9l7.5,7.9A25,25,0,0,0,22.3,31.5Z" fill="#231f20"/><path d="M32.3,23.2l-1.2-1-3.3,2.3.5,1.5a32.2,32.2,0,0,0-2.8,2.4,59.2,59.2,0,0,1-3.4-11.3c1.6-1.2,2.4-1.8,4.1-2.9a61,61,0,0,1,9.4,7.1Zm-5.4-1.1,2.2-1.5-3.3-2.5h0C26.2,19.8,26.4,20.5,26.9,22.1Z" fill="#231f20"/><path d="M44.8,11.6a3.5,3.5,0,0,1-1.4,1.6c1.6,1.4,2.3,2.2,3.8,3.7L43.3,18,40,15l-1.4.5,1.5,3.7a24.1,24.1,0,0,0-3.3,1.5L32,11a43.1,43.1,0,0,1,7.7-3.2,4.7,4.7,0,0,1,2.5-.4,3,3,0,0,1,1.8.8,3.1,3.1,0,0,1,1,1.5A3.2,3.2,0,0,1,44.8,11.6Zm-4.4-1.2h-.9l-2.6,1,.8,1.9,2.5-1a1.8,1.8,0,0,0,.7-.5,1.1,1.1,0,0,0,0-.8A.6.6,0,0,0,40.4,10.4Z" fill="#231f20"/><path d="M57.6,5.5a3.8,3.8,0,0,1,1.8,3.4l-4,.2a1.8,1.8,0,0,0-.7-1.5,2.5,2.5,0,0,0-1.8-.3,2.2,2.2,0,0,0-1.7.9,2.4,2.4,0,0,0-.4,1.9l.2,1a3,3,0,0,0,.8,1.7,2.6,2.6,0,0,0,1.8.5,2.4,2.4,0,0,0,1.6-.7,2,2,0,0,0,.5-1.5l3.7-.2a4.4,4.4,0,0,1-1.5,3.5,7,7,0,0,1-4,1.4,6.2,6.2,0,0,1-4.6-.7,5.3,5.3,0,0,1-2.4-3.7,5,5,0,0,1,.8-4.5c.9-1.2,2.6-2,5-2.2A7.5,7.5,0,0,1,57.6,5.5Z" fill="#231f20"/></g><g id="Layer_2" data-name="Layer 2"><path d="M39.7,82.9S9.7,74.5,20.2,44c.5-1.7,1-3.8,4.2-2.7,1,.4,1.3,1.8,0,4.8C22,51.5,16.9,67.5,40.6,78.6Z" fill="#231f20" stroke="#fff" stroke-miterlimit="10"/><path d="M33.3,80.1c.7-15.3,3.8-19.3,3.8-19.3s-6.6-4.1-6.8-8.5.9-5.4.9-5.4-3-8.3-2.7-10.1,3.1-.1,3.1-.1L37.4,40l6.1-1.5a10.1,10.1,0,0,1,2.8-5.2c2.4-2.3,3.3.8,3.6,2.6s.5,8,.5,8a20,20,0,0,1,2.9,4.6c2.5,1.3,12.5,30.6,12.5,30.6S53.3,88.2,33.3,80.1Z" fill="#231f20" stroke="#fff" stroke-miterlimit="10" stroke-width="0.75"/><ellipse cx="35.6" cy="50.1" rx="1.4" ry="1.9" transform="translate(-24.8 61.5) rotate(-65.2)" fill="#fff"/><ellipse cx="44.5" cy="48.1" rx="1.9" ry="1.4" transform="translate(-20.8 53.7) rotate(-52.1)" fill="#fff"/><path d="M39.5,53.3c-.2.1-.1.6.1.7s.7-.1.9-.1.5.8.5.8h.4a5.1,5.1,0,0,1,.2-.9c.2-.1.8-.1.9-.3s-.1-.6-.3-.7A2.7,2.7,0,0,0,39.5,53.3Z" fill="#fff"/><path d="M70.9,46.5s-4,13.2,3.3,14.2S82.1,48,82.1,48s-.9-3.8-9.8-5l-1-1.8-.7,1.3L70.1,41,69,42.3l-4.8-.7S53.9,40.1,53.3,53.2a25.7,25.7,0,0,1,9.9,1.6s2.7,1.3,2,6c0,0-.2,4.6-4.2,5.5l.2,15.1,4.6-2.3s8.8-5,13.3-11.9L81,63.6l-2.5-3.8s-1,1.7-4.1,1.3S67,58.6,70.9,46.5Z" fill="#231f20" stroke="#fff" stroke-miterlimit="10" stroke-width="0.75"/><path d="M61.2,41.2l-4.5-1s-3-1-4.9,7.1l-.6,2.9s-.2,1.6,1.2,1.9H53S53.3,42.4,61.2,41.2Z" fill="#231f20" stroke="#fff" stroke-miterlimit="10" stroke-width="0.75"/><path d="M53.2,53.5a7.4,7.4,0,0,0-2.8,4.6c-.4,2.9,1.4,5.5,2.8,9.2l.7-.9v2.4l1.7-2.2.3,1.3,4.6-1.8A6.7,6.7,0,0,0,64.7,61c.5-3.8-1.2-5.7-1.2-5.7S58.2,52.9,53.2,53.5Z" fill="#231f20" stroke="#fff" stroke-miterlimit="10" stroke-width="0.75"/><ellipse cx="56.9" cy="50.5" rx="1.7" ry="1.3" transform="translate(-0.8 100) rotate(-82.2)" fill="#fff"/><ellipse cx="65.2" cy="51.6" rx="1.7" ry="1.3" transform="matrix(0.14, -0.99, 0.99, 0.14, 5.29, 109.26)" fill="#fff"/><path d="M54.2,55.1l2.4.3a.9.9,0,0,1,.7,1.2l-.2.5a.9.9,0,0,1-.6.6l-1.4.4a1.1,1.1,0,0,1-.8-.2l-.8-.6a1.1,1.1,0,0,1-.4-.9v-.6A.9.9,0,0,1,54.2,55.1Z" fill="#fff"/></g></svg>