<svg xmlns="http://www.w3.org/2000/svg" width="100" height="100" viewBox="0 0 100 100"><circle cx="50" cy="49.7" r="48.7" fill="#fff"/><path fill="#231f20" stroke="#fff" stroke-miterlimit="10" d="M63 33.8S59.4 56 71.5 56s10-22.2 10-22.2-2.5-6.1-17-6.1l-2-2.6-.8 2.3-1.1-2.3-1.5 2.3h-7.9s-17-.1-15.1 21.1c0 0 6.5-1.6 16.4.3 0 0 4.5 1.5 4.5 9.3 0 0 .7 7.5-5.7 9.7l4 16.6 5.1-1.3S75 77.4 80.8 65.4l2.3-6.4-4.9-5.5s-1.3 3-6.3 3-12.6-2.4-8.9-22.7z"/><path fill="#231f20" d="M46.2 27.4l-7.4-.7s-5.1-.9-6.3 12.5L32 44s.2 2.6 2.4 2.8h1S33.7 31 46.2 27.4zM36.1 49a11.7 11.7 0 0 0-3.6 8c0 4.8 3.6 8.6 6.5 14.1l1-1.6.6 3.9 2.2-3.9.7 2.1 7.1-4s5.7-2.9 5.7-9.1-3.3-8.9-3.3-8.9-9.1-2.7-16.9-.6z"/><ellipse cx="41.2" cy="43.2" fill="#fff" rx="2.1" ry="2.8"/><ellipse cx="55" cy="43.2" fill="#fff" rx="2.1" ry="2.8"/><path fill="#fff" d="M38 51.3h3.9a1.5 1.5 0 0 1 1.5 1.7l-.2.9a1.7 1.7 0 0 1-.9 1.1l-2.3.9a1.5 1.5 0 0 1-1.3-.1l-1.4-.9a1.2 1.2 0 0 1-.7-1.2v-1a1.4 1.4 0 0 1 1.4-1.4z"/><path fill="none" stroke="#231f20" stroke-miterlimit="10" stroke-width="6" d="M65.1 13a39.8 39.8 0 0 1 18.2 14.7 36 36 0 0 1 2.9 5 38.9 38.9 0 0 1 3.8 17 39.4 39.4 0 1 1-78.8 0c0-1.3 0-2.5.1-3.8s.3-2.4.6-3.6"/><path fill="#231f20" d="M22.3 31.5a36.6 36.6 0 0 0-7.3.4l4.2 3.2-2 2.8-9-6.1 2.3-3.2a51.6 51.6 0 0 1 7.7-.8l-3.9-3.6a38.3 38.3 0 0 1 2.8-2.9l7.5 7.9a25 25 0 0 0-2.3 2.3zm10-8.3l-1.2-1-3.3 2.3.5 1.5a32.2 32.2 0 0 0-2.8 2.4 59.2 59.2 0 0 1-3.4-11.3c1.6-1.2 2.4-1.8 4.1-2.9a61 61 0 0 1 9.4 7.1zm-5.4-1.1l2.2-1.5-3.3-2.5c.4 1.7.6 2.4 1.1 4zm17.9-10.5a3.5 3.5 0 0 1-1.4 1.6c1.6 1.4 2.3 2.2 3.8 3.7L43.3 18 40 15l-1.4.5 1.5 3.7a24.1 24.1 0 0 0-3.3 1.5L32 11a43.1 43.1 0 0 1 7.7-3.2 4.7 4.7 0 0 1 2.5-.4 3 3 0 0 1 1.8.8 3.1 3.1 0 0 1 1 1.5 3.2 3.2 0 0 1-.2 1.9zm-4.4-1.2h-.9l-2.6 1 .8 1.9 2.5-1a1.8 1.8 0 0 0 .7-.5 1.1 1.1 0 0 0 0-.8.6.6 0 0 0-.5-.6zm17.2-4.9a3.8 3.8 0 0 1 1.8 3.4l-4 .2a1.8 1.8 0 0 0-.7-1.5 2.5 2.5 0 0 0-1.8-.3 2.2 2.2 0 0 0-1.7.9 2.4 2.4 0 0 0-.4 1.9l.2 1a3 3 0 0 0 .8 1.7 2.6 2.6 0 0 0 1.8.5 2.4 2.4 0 0 0 1.6-.7 2 2 0 0 0 .5-1.5l3.7-.2a4.4 4.4 0 0 1-1.5 3.5 7 7 0 0 1-4 1.4 6.2 6.2 0 0 1-4.6-.7 5.3 5.3 0 0 1-2.4-3.7 5 5 0 0 1 .8-4.5c.9-1.2 2.6-2 5-2.2a7.5 7.5 0 0 1 4.9.8z"/></svg>