<svg xmlns="http://www.w3.org/2000/svg" width="100" height="100" viewBox="0 0 100 100"><circle cx="50" cy="49.7" r="48.7" fill="#fff"/><path fill="none" stroke="#231f20" stroke-miterlimit="10" stroke-width="6" d="M65.1 13a39.8 39.8 0 0 1 18.2 14.7 36 36 0 0 1 2.9 5 38.9 38.9 0 0 1 3.8 17 39.4 39.4 0 1 1-78.8 0c0-1.3 0-2.5.1-3.8s.3-2.4.6-3.6"/><path fill="#231f20" d="M22.3 31.5a36.6 36.6 0 0 0-7.3.4l4.2 3.2-2 2.8-9-6.1 2.3-3.2a51.6 51.6 0 0 1 7.7-.8l-3.9-3.6a38.3 38.3 0 0 1 2.8-2.9l7.5 7.9a25 25 0 0 0-2.3 2.3zm10-8.3l-1.2-1-3.3 2.3.5 1.5a32.2 32.2 0 0 0-2.8 2.4 59.2 59.2 0 0 1-3.4-11.3c1.6-1.2 2.4-1.8 4.1-2.9a61 61 0 0 1 9.4 7.1zm-5.4-1.1l2.2-1.5-3.3-2.5c.4 1.7.6 2.4 1.1 4zm17.9-10.5a3.5 3.5 0 0 1-1.4 1.6c1.6 1.4 2.3 2.2 3.8 3.7L43.3 18 40 15l-1.4.5 1.5 3.7a24.1 24.1 0 0 0-3.3 1.5L32 11a43.1 43.1 0 0 1 7.7-3.2 4.7 4.7 0 0 1 2.5-.4 3 3 0 0 1 1.8.8 3.1 3.1 0 0 1 1 1.5 3.2 3.2 0 0 1-.2 1.9zm-4.4-1.2h-.9l-2.6 1 .8 1.9 2.5-1a1.8 1.8 0 0 0 .7-.5 1.1 1.1 0 0 0 0-.8.6.6 0 0 0-.5-.6zm17.2-4.9a3.8 3.8 0 0 1 1.8 3.4l-4 .2a1.8 1.8 0 0 0-.7-1.5 2.5 2.5 0 0 0-1.8-.3 2.2 2.2 0 0 0-1.7.9 2.4 2.4 0 0 0-.4 1.9l.2 1a3 3 0 0 0 .8 1.7 2.6 2.6 0 0 0 1.8.5 2.4 2.4 0 0 0 1.6-.7 2 2 0 0 0 .5-1.5l3.7-.2a4.4 4.4 0 0 1-1.5 3.5 7 7 0 0 1-4 1.4 6.2 6.2 0 0 1-4.6-.7 5.3 5.3 0 0 1-2.4-3.7 5 5 0 0 1 .8-4.5c.9-1.2 2.6-2 5-2.2a7.5 7.5 0 0 1 4.9.8z"/><path fill="#231f20" stroke="#fff" stroke-miterlimit="10" d="M39.7 82.9S9.7 74.5 20.2 44c.5-1.7 1-3.8 4.2-2.7 1 .4 1.3 1.8 0 4.8-2.4 5.4-7.5 21.4 16.2 32.5z"/><path fill="#231f20" stroke="#fff" stroke-miterlimit="10" stroke-width=".75" d="M33.3 80.1c.7-15.3 3.8-19.3 3.8-19.3s-6.6-4.1-6.8-8.5.9-5.4.9-5.4-3-8.3-2.7-10.1 3.1-.1 3.1-.1l5.8 3.3 6.1-1.5a10.1 10.1 0 0 1 2.8-5.2c2.4-2.3 3.3.8 3.6 2.6s.5 8 .5 8a20 20 0 0 1 2.9 4.6c2.5 1.3 12.5 30.6 12.5 30.6s-12.5 9.1-32.5 1z"/><ellipse cx="35.6" cy="50.1" fill="#fff" rx="1.4" ry="1.9" transform="rotate(-65.2 35.682 50.14)"/><ellipse cx="44.5" cy="48.1" fill="#fff" rx="1.9" ry="1.4" transform="rotate(-52.1 44.529 48.126)"/><path fill="#fff" d="M39.5 53.3c-.2.1-.1.6.1.7s.7-.1.9-.1.5.8.5.8h.4a5.1 5.1 0 0 1 .2-.9c.2-.1.8-.1.9-.3s-.1-.6-.3-.7a2.7 2.7 0 0 0-2.7.5z"/><path fill="#231f20" stroke="#fff" stroke-miterlimit="10" stroke-width=".75" d="M70.9 46.5s-4 13.2 3.3 14.2S82.1 48 82.1 48s-.9-3.8-9.8-5l-1-1.8-.7 1.3-.5-1.5-1.1 1.3-4.8-.7s-10.3-1.5-10.9 11.6a25.7 25.7 0 0 1 9.9 1.6s2.7 1.3 2 6c0 0-.2 4.6-4.2 5.5l.2 15.1 4.6-2.3s8.8-5 13.3-11.9l1.9-3.6-2.5-3.8s-1 1.7-4.1 1.3-7.4-2.5-3.5-14.6z"/><path fill="#231f20" stroke="#fff" stroke-miterlimit="10" stroke-width=".75" d="M61.2 41.2l-4.5-1s-3-1-4.9 7.1l-.6 2.9s-.2 1.6 1.2 1.9h.6s.3-9.7 8.2-10.9zm-8 12.3a7.4 7.4 0 0 0-2.8 4.6c-.4 2.9 1.4 5.5 2.8 9.2l.7-.9v2.4l1.7-2.2.3 1.3 4.6-1.8a6.7 6.7 0 0 0 4.2-5.1c.5-3.8-1.2-5.7-1.2-5.7s-5.3-2.4-10.3-1.8z"/><ellipse cx="56.9" cy="50.5" fill="#fff" rx="1.7" ry="1.3" transform="rotate(-82.2 56.916 50.459)"/><ellipse cx="65.2" cy="51.6" fill="#fff" rx="1.7" ry="1.3" transform="rotate(-82 65.544 51.594)"/><path fill="#fff" d="M54.2 55.1l2.4.3a.9.9 0 0 1 .7 1.2l-.2.5a.9.9 0 0 1-.6.6l-1.4.4a1.1 1.1 0 0 1-.8-.2l-.8-.6a1.1 1.1 0 0 1-.4-.9v-.6a.9.9 0 0 1 1.1-.7z"/></svg>